<svg xmlns="http://www.w3.org/2000/svg" viewBox="0 0 86.19 86.19"><defs><style>.cls-1{fill:#FFFFFF;}</style></defs><g id="Calque_2" data-name="Calque 2"><g id="Objects"><path class="cls-1" d="M43.1,7.77c11.5,0,12.87,0,17.41.25a23.83,23.83,0,0,1,8,1.48,14.21,14.21,0,0,1,8.18,8.18,24,24,0,0,1,1.49,8c.2,4.55.25,5.91.25,17.42S78.38,56,78.18,60.51a24,24,0,0,1-1.49,8,14.21,14.21,0,0,1-8.18,8.18,23.83,23.83,0,0,1-8,1.48c-4.54.21-5.91.26-17.41.26s-12.87-.05-17.42-.26a23.83,23.83,0,0,1-8-1.48,13.35,13.35,0,0,1-4.95-3.22,13.37,13.37,0,0,1-3.23-5,23.83,23.83,0,0,1-1.48-8C7.81,56,7.77,54.6,7.77,43.1s0-12.87.25-17.42a23.83,23.83,0,0,1,1.48-8,13.37,13.37,0,0,1,3.23-5A13.35,13.35,0,0,1,17.68,9.5a23.83,23.83,0,0,1,8-1.48c4.55-.21,5.91-.25,17.42-.25M43.1,0C31.39,0,29.93.05,25.33.26a31.77,31.77,0,0,0-10.46,2,21.2,21.2,0,0,0-7.63,5,21.09,21.09,0,0,0-5,7.64,31.77,31.77,0,0,0-2,10.46C.05,29.92,0,31.39,0,43.1S.05,56.27.26,60.86a31.77,31.77,0,0,0,2,10.46,21.09,21.09,0,0,0,5,7.64,21.07,21.07,0,0,0,7.63,5,31.77,31.77,0,0,0,10.46,2c4.6.21,6.06.26,17.77.26s13.17,0,17.77-.26a31.88,31.88,0,0,0,10.46-2,22,22,0,0,0,12.6-12.61,31.51,31.51,0,0,0,2-10.46c.21-4.59.26-6.06.26-17.76s0-13.18-.26-17.77a31.51,31.51,0,0,0-2-10.46A22,22,0,0,0,71.33,2.26a31.88,31.88,0,0,0-10.46-2C56.27.05,54.8,0,43.1,0m0,21A22.13,22.13,0,1,0,65.23,43.1,22.13,22.13,0,0,0,43.1,21m0,36.49A14.37,14.37,0,1,1,57.46,43.1,14.36,14.36,0,0,1,43.1,57.46M71.27,20.09a5.17,5.17,0,1,0-5.17,5.17,5.17,5.17,0,0,0,5.17-5.17"/></g></g></svg>