<svg xmlns="http://www.w3.org/2000/svg" viewBox="0 0 264.23 185.8"><defs><style>.cls-1{fill:none;stroke-miterlimit:10;stroke-width:2px;}.cls-1,.cls-2{stroke:#fff;}.cls-2{fill:#fff;}</style></defs><g id="Calque_2" data-name="Calque 2"><g id="Logo_2" data-name="Logo 2"><path class="cls-1" d="M242,28.75,200,28.56s-5.95-6.77.32-13.43l41.85.19S250.28,20.91,242,28.75Z"/><path class="cls-1" d="M241.3,42.33l-54.21-.25s-6.13-6.35.38-13l54,.25S251.4,35.37,241.3,42.33Z"/><path class="cls-1" d="M243.67,1.41,214.29,1c.13.28-7.87,5.28.7,13.43l26.09.12S250.73,9,243.67,1.41Z"/><path class="cls-1" d="M241.3,42.33l-73.6.09s-11.07,6.53-1.62,13.8l83.36.38-.18,38.18s7,9.74,13.78.06l.19-40"/><path class="cls-1" d="M22.2,157.05l42,.19s6,6.77-.31,13.43l-41.85-.19S14,164.89,22.2,157.05Z"/><path class="cls-1" d="M22.93,143.47l54.21.24s6.13,6.36-.39,13l-54-.25S12.83,150.42,22.93,143.47Z"/><path class="cls-1" d="M20.56,184.39l29.37.39c-.12-.28,7.88-5.28-.69-13.43l-26.09-.12S13.5,176.76,20.56,184.39Z"/><path class="cls-1" d="M22.93,143.47l73.59-.09s11.08-6.53,1.62-13.8l-83.35-.38L15,91S8,81.28,1.18,91l-.18,40"/><g id="Weklap"><path class="cls-2" d="M68.88,116.31H57.46l-5.84-31.9h-.14l-5.77,31.9H34.29L25.36,68.76H36.3l4.91,33.11h.27l5.17-33.11H57.06l5.37,33.11h.2l4.84-33.11H77.88Z"/><path class="cls-2" d="M87.54,101.4c.06,3.9,1.88,7.19,4.76,7.19,2.36,0,3.7-1.81,4.5-3.83l7.73,4.37c-2.35,5.17-6.45,8.46-12.63,8.46-8.26,0-14.57-6.58-14.57-18.74,0-11.55,5.91-18.94,14.3-18.94,9.68,0,13.5,7.86,13.5,18.54v3ZM91.7,88c-2.82,0-4.16,3.83-4.23,6.58h8C95.46,90.79,94.39,88,91.7,88Z"/><path class="cls-2" d="M130.17,116.31,120,94.22h-.2v22.09H109V68.76h10.81V88.57h.2l9.81-19.81h12L129.64,90.52l13,25.79Z"/><path class="cls-2" d="M144.8,116.31V65.54h10.75v50.77Z"/><path class="cls-2" d="M176.16,112c-.87,3.09-3.62,5.24-7.79,5.24s-9.2-2.62-9.2-10.68c0-9.61,7.59-12.29,15-12.29h1.34v-.54c0-3.36-1.74-4.84-4.3-4.84A8.31,8.31,0,0,0,165,91.93l-4.64-6.45A15.73,15.73,0,0,1,172,80.11c9.54,0,13,5.84,13,16.19v20H176.3V112Zm-.33-11H174c-3.09,0-5.85,1-5.85,4.77,0,2.75,1.41,4,3.09,4,3.29,0,4.64-3.56,4.64-6.85Z"/><path class="cls-2" d="M200.67,81.19v4.16h.2c1.21-3,3.43-5.24,7.32-5.24,7.52,0,11.62,7.93,11.62,18.27,0,10.61-4.1,19-11.62,19a7.25,7.25,0,0,1-7.18-4.84h-.14v19.88H190.53V81.19Zm4.3,27.06c3.22,0,4.5-4.3,4.5-9.53s-1.28-9.54-4.5-9.54c-3,0-4.5,4.23-4.5,9.54S202,108.25,205,108.25Z"/><path class="cls-2" d="M230.55,116.92a5.73,5.73,0,0,1-5.64-6,5.69,5.69,0,1,1,11.35,0A5.75,5.75,0,0,1,230.55,116.92Zm-5.17-16.79V68.76h10.41v31.37Z"/></g></g></g></svg>