<svg xmlns="http://www.w3.org/2000/svg" viewBox="0 0 63.93 73.22"><defs><style>.cls-1{fill:#FFFFFF;}</style></defs><g id="Calque_2" data-name="Calque 2"><g id="Objects"><path class="cls-1" d="M34,0H46.32c1.2,10.57,7.29,16.13,17.61,17.58V29.72c-6.27.29-11.8-1.79-17.23-5.26-.08.87-.18,1.5-.18,2.13,0,7.72,0,15.44,0,23.17-.06,13-9.39,22.54-22.92,23.42C12.77,73.89,1.93,64.48.23,52.89c-2-13.84,9.66-26.76,23.61-26.09.76,0,1.51.19,2.38.31v12.3c-.66,0-1.31,0-2,0-6.31-.34-11.35,4-11.57,10a10.53,10.53,0,0,0,9.92,10.92c6.37.24,11.28-4.22,11.31-10.58C34,34.35,34,18.9,34,3.46Z"/></g></g></svg>