<svg xmlns="http://www.w3.org/2000/svg" viewBox="0 0 77.48 62.97"><defs><style>.cls-1{fill:#FFFFFF;}</style></defs><g id="Calque_2" data-name="Calque 2"><g id="Objects"><path class="cls-1" d="M24.37,63C53.6,63,69.59,38.74,69.59,17.74c0-.69,0-1.37,0-2a32.53,32.53,0,0,0,7.93-8.24A31.75,31.75,0,0,1,68.35,10a16,16,0,0,0,7-8.8A31.54,31.54,0,0,1,65.25,5,15.91,15.91,0,0,0,37.74,15.89a15.48,15.48,0,0,0,.42,3.63A45.16,45.16,0,0,1,5.39,2.91a15.92,15.92,0,0,0,4.92,21.22,15.73,15.73,0,0,1-7.2-2v.21A15.9,15.9,0,0,0,15.86,37.93a16,16,0,0,1-4.19.56,15.55,15.55,0,0,1-3-.29,15.92,15.92,0,0,0,14.85,11A31.85,31.85,0,0,1,3.79,56.05,33.84,33.84,0,0,1,0,55.83,45,45,0,0,0,24.37,63"/></g></g></svg>